{
    "asset" : {
        "generator" : "Khronos glTF Blender I/O v3.2.43",
        "version" : "2.0"
    },
    "scene" : 0,
    "scenes" : [
        {
            "name" : "Scene",
            "nodes" : [
                0,
                1,
                2,
                3,
                4,
                5
            ]
        }
    ],
    "nodes" : [
        {
            "mesh" : 0,
            "name" : "Giftbox01",
            "translation" : [
                0.0009583979845046997,
                1.0582242012023926,
                0
            ]
        },
        {
            "mesh" : 1,
            "name" : "Giftbox02",
            "rotation" : [
                0,
                0.7071068286895752,
                0,
                0.7071068286895752
            ],
            "scale" : [
                1.0262984037399292,
                1.0262984037399292,
                1.0262984037399292
            ],
            "translation" : [
                0.0009583979845046997,
                1.3074097633361816,
                0
            ]
        },
        {
            "mesh" : 2,
            "name" : "Giftbox03",
            "rotation" : [
                0,
                -0.38268330693244934,
                0,
                0.9238796234130859
            ],
            "translation" : [
                0.00923176109790802,
                2.1885643005371094,
                0
            ]
        },
        {
            "mesh" : 3,
            "name" : "Giftbox04",
            "rotation" : [
                -0.025680875405669212,
                0,
                0,
                0.9996702075004578
            ],
            "scale" : [
                0.18289999663829803,
                0.40300044417381287,
                0.36303043365478516
            ],
            "translation" : [
                0.00923176109790802,
                2.1885643005371094,
                0
            ]
        },
        {
            "mesh" : 4,
            "name" : "Giftbox05",
            "translation" : [
                0.00923176109790802,
                2.1885643005371094,
                0
            ]
        },
        {
            "mesh" : 5,
            "name" : "Giftbox06",
            "scale" : [
                0.1678636074066162,
                0.1678636074066162,
                0.1678636074066162
            ],
            "translation" : [
                0.002509787678718567,
                2.37746000289917,
                0.007474570535123348
            ]
        }
    ],
    "materials" : [
        {
            "doubleSided" : true,
            "name" : "Pink01",
            "pbrMetallicRoughness" : {
                "baseColorFactor" : [
                    0.8000000715255737,
                    0.3292648494243622,
                    0.508145272731781,
                    1
                ],
                "metallicFactor" : 0,
                "roughnessFactor" : 0.5
            }
        },
        {
            "doubleSided" : true,
            "name" : "Pink02",
            "pbrMetallicRoughness" : {
                "baseColorFactor" : [
                    0.6938718557357788,
                    0.1356775015592575,
                    0.2985050678253174,
                    1
                ],
                "metallicFactor" : 0,
                "roughnessFactor" : 0.6000000238418579
            }
        },
        {
            "doubleSided" : true,
            "name" : "Pink03",
            "pbrMetallicRoughness" : {
                "baseColorFactor" : [
                    0.8000000715255737,
                    0.20082345604896545,
                    0.6774466633796692,
                    1
                ],
                "metallicFactor" : 0,
                "roughnessFactor" : 0.5
            }
        },
        {
            "doubleSided" : true,
            "name" : "Yellow01",
            "pbrMetallicRoughness" : {
                "baseColorFactor" : [
                    0.7873992919921875,
                    0.4332678020000458,
                    0.12183460593223572,
                    1
                ],
                "metallicFactor" : 0.20000000298023224,
                "roughnessFactor" : 0.5
            }
        }
    ],
    "meshes" : [
        {
            "name" : "Cube.086",
            "primitives" : [
                {
                    "attributes" : {
                        "POSITION" : 0,
                        "NORMAL" : 1,
                        "TEXCOORD_0" : 2
                    },
                    "indices" : 3,
                    "material" : 0
                }
            ]
        },
        {
            "name" : "Cube.001",
            "primitives" : [
                {
                    "attributes" : {
                        "POSITION" : 4,
                        "NORMAL" : 5,
                        "TEXCOORD_0" : 6
                    },
                    "indices" : 7,
                    "material" : 1
                }
            ]
        },
        {
            "name" : "NurbsPath.006",
            "primitives" : [
                {
                    "attributes" : {
                        "POSITION" : 8,
                        "NORMAL" : 9,
                        "TEXCOORD_0" : 10
                    },
                    "indices" : 11,
                    "material" : 1
                }
            ]
        },
        {
            "name" : "Plane.023",
            "primitives" : [
                {
                    "attributes" : {
                        "POSITION" : 12,
                        "NORMAL" : 13,
                        "TEXCOORD_0" : 14
                    },
                    "indices" : 15,
                    "material" : 2
                }
            ]
        },
        {
            "name" : "NurbsPath.007",
            "primitives" : [
                {
                    "attributes" : {
                        "POSITION" : 16,
                        "NORMAL" : 17,
                        "TEXCOORD_0" : 18
                    },
                    "indices" : 19,
                    "material" : 0
                }
            ]
        },
        {
            "name" : "Sphere",
            "primitives" : [
                {
                    "attributes" : {
                        "POSITION" : 20,
                        "NORMAL" : 21,
                        "TEXCOORD_0" : 22
                    },
                    "indices" : 23,
                    "material" : 3
                }
            ]
        }
    ],
    "accessors" : [
        {
            "bufferView" : 0,
            "componentType" : 5126,
            "count" : 401,
            "max" : [
                1.0816529989242554,
                1.0670993328094482,
                1.0816529989242554
            ],
            "min" : [
                -1.0816529989242554,
                -1,
                -1.0816529989242554
            ],
            "type" : "VEC3"
        },
        {
            "bufferView" : 1,
            "componentType" : 5126,
            "count" : 401,
            "type" : "VEC3"
        },
        {
            "bufferView" : 2,
            "componentType" : 5126,
            "count" : 401,
            "type" : "VEC2"
        },
        {
            "bufferView" : 3,
            "componentType" : 5123,
            "count" : 1428,
            "type" : "SCALAR"
        },
        {
            "bufferView" : 4,
            "componentType" : 5126,
            "count" : 1170,
            "max" : [
                1.107059359550476,
                0.8541948795318604,
                1.1070594787597656
            ],
            "min" : [
                -1.1070594787597656,
                -1.2698208093643188,
                -1.107059359550476
            ],
            "type" : "VEC3"
        },
        {
            "bufferView" : 5,
            "componentType" : 5126,
            "count" : 1170,
            "type" : "VEC3"
        },
        {
            "bufferView" : 6,
            "componentType" : 5126,
            "count" : 1170,
            "type" : "VEC2"
        },
        {
            "bufferView" : 7,
            "componentType" : 5123,
            "count" : 6144,
            "type" : "SCALAR"
        },
        {
            "bufferView" : 8,
            "componentType" : 5126,
            "count" : 1036,
            "max" : [
                0.8492907881736755,
                0.43613168597221375,
                0.8492907285690308
            ],
            "min" : [
                -0.8492907881736755,
                -0.01591738685965538,
                -0.8492907881736755
            ],
            "type" : "VEC3"
        },
        {
            "bufferView" : 9,
            "componentType" : 5126,
            "count" : 1036,
            "type" : "VEC3"
        },
        {
            "bufferView" : 10,
            "componentType" : 5126,
            "count" : 1036,
            "type" : "VEC2"
        },
        {
            "bufferView" : 11,
            "componentType" : 5123,
            "count" : 5376,
            "type" : "SCALAR"
        },
        {
            "bufferView" : 12,
            "componentType" : 5126,
            "count" : 2952,
            "max" : [
                4.284605026245117,
                0.17474858462810516,
                2.156879425048828
            ],
            "min" : [
                -4.284604072570801,
                -0.09461142867803574,
                -2.154717445373535
            ],
            "type" : "VEC3"
        },
        {
            "bufferView" : 13,
            "componentType" : 5126,
            "count" : 2952,
            "type" : "VEC3"
        },
        {
            "bufferView" : 14,
            "componentType" : 5126,
            "count" : 2952,
            "type" : "VEC2"
        },
        {
            "bufferView" : 15,
            "componentType" : 5123,
            "count" : 17664,
            "type" : "SCALAR"
        },
        {
            "bufferView" : 16,
            "componentType" : 5126,
            "count" : 975,
            "max" : [
                0.5716298222541809,
                0.4747743606567383,
                1.0303674936294556
            ],
            "min" : [
                -0.5505295991897583,
                -0.06281083077192307,
                -0.4868428111076355
            ],
            "type" : "VEC3"
        },
        {
            "bufferView" : 17,
            "componentType" : 5126,
            "count" : 975,
            "type" : "VEC3"
        },
        {
            "bufferView" : 18,
            "componentType" : 5126,
            "count" : 975,
            "type" : "VEC2"
        },
        {
            "bufferView" : 19,
            "componentType" : 5123,
            "count" : 5388,
            "type" : "SCALAR"
        },
        {
            "bufferView" : 20,
            "componentType" : 5126,
            "count" : 559,
            "max" : [
                0.9999997019767761,
                1,
                0.9999994039535522
            ],
            "min" : [
                -0.9999990463256836,
                -1,
                -0.9999987483024597
            ],
            "type" : "VEC3"
        },
        {
            "bufferView" : 21,
            "componentType" : 5126,
            "count" : 559,
            "type" : "VEC3"
        },
        {
            "bufferView" : 22,
            "componentType" : 5126,
            "count" : 559,
            "type" : "VEC2"
        },
        {
            "bufferView" : 23,
            "componentType" : 5123,
            "count" : 2880,
            "type" : "SCALAR"
        }
    ],
    "bufferViews" : [
        {
            "buffer" : 0,
            "byteLength" : 4812,
            "byteOffset" : 0
        },
        {
            "buffer" : 0,
            "byteLength" : 4812,
            "byteOffset" : 4812
        },
        {
            "buffer" : 0,
            "byteLength" : 3208,
            "byteOffset" : 9624
        },
        {
            "buffer" : 0,
            "byteLength" : 2856,
            "byteOffset" : 12832
        },
        {
            "buffer" : 0,
            "byteLength" : 14040,
            "byteOffset" : 15688
        },
        {
            "buffer" : 0,
            "byteLength" : 14040,
            "byteOffset" : 29728
        },
        {
            "buffer" : 0,
            "byteLength" : 9360,
            "byteOffset" : 43768
        },
        {
            "buffer" : 0,
            "byteLength" : 12288,
            "byteOffset" : 53128
        },
        {
            "buffer" : 0,
            "byteLength" : 12432,
            "byteOffset" : 65416
        },
        {
            "buffer" : 0,
            "byteLength" : 12432,
            "byteOffset" : 77848
        },
        {
            "buffer" : 0,
            "byteLength" : 8288,
            "byteOffset" : 90280
        },
        {
            "buffer" : 0,
            "byteLength" : 10752,
            "byteOffset" : 98568
        },
        {
            "buffer" : 0,
            "byteLength" : 35424,
            "byteOffset" : 109320
        },
        {
            "buffer" : 0,
            "byteLength" : 35424,
            "byteOffset" : 144744
        },
        {
            "buffer" : 0,
            "byteLength" : 23616,
            "byteOffset" : 180168
        },
        {
            "buffer" : 0,
            "byteLength" : 35328,
            "byteOffset" : 203784
        },
        {
            "buffer" : 0,
            "byteLength" : 11700,
            "byteOffset" : 239112
        },
        {
            "buffer" : 0,
            "byteLength" : 11700,
            "byteOffset" : 250812
        },
        {
            "buffer" : 0,
            "byteLength" : 7800,
            "byteOffset" : 262512
        },
        {
            "buffer" : 0,
            "byteLength" : 10776,
            "byteOffset" : 270312
        },
        {
            "buffer" : 0,
            "byteLength" : 6708,
            "byteOffset" : 281088
        },
        {
            "buffer" : 0,
            "byteLength" : 6708,
            "byteOffset" : 287796
        },
        {
            "buffer" : 0,
            "byteLength" : 4472,
            "byteOffset" : 294504
        },
        {
            "buffer" : 0,
            "byteLength" : 5760,
            "byteOffset" : 298976
        }
    ],
    "buffers" : [
        {
            "byteLength" : 304736,
            "uri" : "data:application/octet-stream;base64,"
        }
    ]
}
